STARTFONT 2.1
COMMENT
COMMENT Converted from OpenType font "UbuntuMono-Regular.ttf" by "otf2bdf 3.0".
COMMENT
FONT -FreeType-ubuntu mono cp1252-Medium-R-Normal--42-300-100-100-P-155-ISO10646-1
SIZE 30 100 100
FONTBOUNDINGBOX 21 42 0 -7
STARTPROPERTIES 19
FOUNDRY "FreeType"
FAMILY_NAME "ubuntu mono cp1252"
WEIGHT_NAME "Medium"
SLANT "R"
SETWIDTH_NAME "Normal"
ADD_STYLE_NAME ""
PIXEL_SIZE 42
POINT_SIZE 300
RESOLUTION_X 100
RESOLUTION_Y 100
SPACING "P"
AVERAGE_WIDTH 155
CHARSET_REGISTRY "ISO10646"
CHARSET_ENCODING "1"
FONT_ASCENT 34
FONT_DESCENT 7
COPYRIGHT "Copyright 2011 Canonical Ltd.  Licensed under the Ubuntu Font Licence 1.0"
_OTF_FONTFILE "UbuntuMono-Regular.ttf"
_OTF_PSNAME "UbuntuMono-Regular"
ENDPROPERTIES
CHARS 223
STARTCHAR 0000
ENCODING 157
SWIDTH 504 0
DWIDTH 21 0
BBX 0 0 0 0
BITMAP
ENDCHAR
STARTCHAR 0008
ENCODING 8
SWIDTH 504 0
DWIDTH 21 0
BBX 0 0 0 0
BITMAP
ENDCHAR
STARTCHAR 0009
ENCODING 9
SWIDTH 504 0
DWIDTH 21 0
BBX 0 0 0 0
BITMAP
ENDCHAR
STARTCHAR 000D
ENCODING 13
SWIDTH 504 0
DWIDTH 21 0
BBX 0 0 0 0
BITMAP
ENDCHAR
STARTCHAR 001D
ENCODING 29
SWIDTH 504 0
DWIDTH 21 0
BBX 0 0 0 0
BITMAP
ENDCHAR
STARTCHAR 0020
ENCODING 32
SWIDTH 504 0
DWIDTH 21 0
BBX 0 0 0 0
BITMAP
ENDCHAR
STARTCHAR 0021
ENCODING 33
SWIDTH 504 0
DWIDTH 21 0
BBX 5 26 8 0
BITMAP
70
70
70
70
70
70
70
70
70
70
70
70
70
70
70
70
00
00
00
00
70
F8
F8
F8
F8
70
ENDCHAR
STARTCHAR 0022
ENCODING 34
SWIDTH 504 0
DWIDTH 21 0
BBX 11 10 5 19
BITMAP
F1E0
F1E0
F1E0
F1E0
F1C0
60C0
60C0
60C0
60C0
60C0
ENDCHAR
STARTCHAR 0023
ENCODING 35
SWIDTH 504 0
DWIDTH 21 0
BBX 19 26 1 0
BITMAP
03C380
038380
038380
038380
038780
078700
070700
FFFFE0
FFFFE0
FFFFE0
070F00
0F0E00
0E0E00
0E0E00
0E1E00
1E1C00
FFFFE0
FFFFE0
FFFFE0
1C1C00
1C3C00
3C3800
383800
383800
383800
387800
ENDCHAR
STARTCHAR 0024
ENCODING 36
SWIDTH 504 0
DWIDTH 21 0
BBX 17 33 2 -4
BITMAP
01C000
01C000
01C000
01C000
07FC00
1FFE00
3FFE00
7C0600
780000
700000
700000
780000
7C0000
3F0000
3FC000
0FF800
03FC00
00FE00
001F00
000F00
000780
000780
000780
400700
701F00
FFFE00
7FFC00
1FF000
01C000
01C000
01C000
01C000
01C000
ENDCHAR
STARTCHAR 0025
ENCODING 37
SWIDTH 504 0
DWIDTH 21 0
BBX 19 26 1 0
BITMAP
3C00E0
7F01C0
E70380
E38380
C38700
C38700
C38E00
C39C00
C39C00
E3B800
E73000
7F7000
3CE000
00E780
01DFC0
039CE0
03B8E0
0738E0
073860
0E3860
1C3860
1C38E0
3838E0
381CE0
701FC0
E00780
ENDCHAR
STARTCHAR 0026
ENCODING 38
SWIDTH 504 0
DWIDTH 21 0
BBX 19 26 1 0
BITMAP
03E000
0FF800
1FFC00
1E3C00
3C1C00
381C00
381C00
3C1C00
1C3800
1E7800
0FF000
0FC000
0F8380
1FC380
3DE380
78F380
707B80
703F00
F03F00
F01F00
F00F00
781F80
7C7F80
3FFBC0
1FF1C0
0FC1E0
ENDCHAR
STARTCHAR 0027
ENCODING 39
SWIDTH 504 0
DWIDTH 21 0
BBX 3 11 9 18
BITMAP
E0
E0
E0
E0
E0
E0
E0
E0
E0
E0
E0
ENDCHAR
STARTCHAR 0028
ENCODING 40
SWIDTH 504 0
DWIDTH 21 0
BBX 11 36 5 -7
BITMAP
0040
01C0
03E0
07C0
0F80
0F00
1E00
3C00
3C00
7800
7800
7000
F000
F000
E000
E000
E000
E000
E000
E000
E000
E000
F000
F000
7000
7800
7800
3C00
3C00
1E00
0F00
0780
07C0
03E0
01C0
0040
ENDCHAR
STARTCHAR 0029
ENCODING 41
SWIDTH 504 0
DWIDTH 21 0
BBX 11 36 5 -7
BITMAP
4000
7000
F800
7C00
3C00
1E00
0F00
0F00
0780
0380
03C0
01C0
01C0
01E0
00E0
00E0
00E0
00E0
00E0
00E0
00E0
00E0
01E0
01E0
01C0
03C0
0380
0780
0700
0F00
1E00
3C00
7C00
F800
7000
4000
ENDCHAR
STARTCHAR 002A
ENCODING 42
SWIDTH 504 0
DWIDTH 21 0
BBX 15 15 3 11
BITMAP
0380
0380
0380
0380
C386
F39E
FDFE
7FFC
0380
07C0
0EF0
1C78
3C78
3838
0820
ENDCHAR
STARTCHAR 002B
ENCODING 43
SWIDTH 504 0
DWIDTH 21 0
BBX 17 19 2 2
BITMAP
01C000
01C000
01C000
01C000
01C000
01C000
01C000
01C000
FFFF80
FFFF80
FFFF80
01C000
01C000
01C000
01C000
01C000
01C000
01C000
01C000
ENDCHAR
STARTCHAR 002C
ENCODING 44
SWIDTH 504 0
DWIDTH 21 0
BBX 9 12 6 -6
BITMAP
0E00
1F00
1F80
3F80
1F80
0F80
0700
0F00
3E00
FC00
7800
6000
ENDCHAR
STARTCHAR 002D
ENCODING 45
SWIDTH 504 0
DWIDTH 21 0
BBX 9 3 6 9
BITMAP
FF80
FF80
FF80
ENDCHAR
STARTCHAR 002E
ENCODING 46
SWIDTH 504 0
DWIDTH 21 0
BBX 7 6 7 0
BITMAP
38
7C
FE
FE
7C
38
ENDCHAR
STARTCHAR 002F
ENCODING 47
SWIDTH 504 0
DWIDTH 21 0
BBX 15 36 3 -7
BITMAP
001E
001E
001C
003C
003C
0038
0078
0078
0070
00F0
00F0
00E0
00E0
01E0
01C0
01C0
03C0
0380
0380
0780
0780
0700
0F00
0F00
0E00
1E00
1E00
1C00
3C00
3C00
3800
7800
7800
7000
F000
F000
ENDCHAR
STARTCHAR 0030
ENCODING 48
SWIDTH 504 0
DWIDTH 21 0
BBX 17 26 2 0
BITMAP
03E000
0FF800
1FFC00
3E3E00
780E00
780F00
700700
F00780
F00780
F00780
F1C780
E3E780
E3E380
E3E380
E1C780
F00780
F00780
F00780
F00780
700700
780F00
780E00
3E3E00
1FFC00
0FF800
03E000
ENDCHAR
STARTCHAR 0031
ENCODING 49
SWIDTH 504 0
DWIDTH 21 0
BBX 15 26 3 0
BITMAP
00C0
03C0
07C0
1FC0
7FC0
FDC0
79C0
61C0
01C0
01C0
01C0
01C0
01C0
01C0
01C0
01C0
01C0
01C0
01C0
01C0
01C0
01C0
01C0
7FFE
7FFE
7FFE
ENDCHAR
STARTCHAR 0032
ENCODING 50
SWIDTH 504 0
DWIDTH 21 0
BBX 16 26 3 0
BITMAP
0FC0
7FF0
FFF8
F07C
403C
001E
001E
001E
001C
003C
003C
0078
00F0
01F0
03E0
07C0
0F80
1F00
3E00
3C00
7800
7000
F000
FFFF
FFFF
FFFF
ENDCHAR
STARTCHAR 0033
ENCODING 51
SWIDTH 504 0
DWIDTH 21 0
BBX 16 26 3 0
BITMAP
1FC0
7FF0
FFF8
707C
403C
001C
001C
001C
001C
003C
00F8
0FF0
0FE0
0FF8
007C
001E
001E
000E
000F
000F
000E
001E
C07C
FFFC
FFF0
3FC0
ENDCHAR
STARTCHAR 0034
ENCODING 52
SWIDTH 504 0
DWIDTH 21 0
BBX 18 26 2 0
BITMAP
001E00
003E00
007E00
00FE00
01FE00
03DE00
039E00
071E00
0E1E00
1E1E00
1C1E00
381E00
381E00
701E00
F01E00
E01E00
FFFFC0
FFFFC0
FFFFC0
001E00
001E00
001E00
001E00
001E00
001E00
001E00
ENDCHAR
STARTCHAR 0035
ENCODING 53
SWIDTH 504 0
DWIDTH 21 0
BBX 16 26 3 0
BITMAP
3FFE
3FFE
3FFE
3800
3800
3800
3800
3800
3800
3800
3F80
3FF0
7FF8
01FC
003E
001E
000E
000F
000F
000E
000E
001E
C07C
FFFC
FFF0
3FC0
ENDCHAR
STARTCHAR 0036
ENCODING 54
SWIDTH 504 0
DWIDTH 21 0
BBX 17 26 2 0
BITMAP
001E00
00FE00
03FE00
07E000
0F8000
1E0000
3C0000
3C0000
780000
780000
73F000
7FFC00
FFFE00
F81F00
F00F00
F00780
F00780
F00780
F00780
700780
780700
780F00
3E1F00
1FFE00
0FFC00
03F000
ENDCHAR
STARTCHAR 0037
ENCODING 55
SWIDTH 504 0
DWIDTH 21 0
BBX 16 26 3 0
BITMAP
FFFF
FFFF
FFFF
000F
001E
003C
003C
0078
0070
00F0
00E0
01E0
01E0
01C0
03C0
0380
0780
0780
0700
0700
0F00
0F00
0F00
0E00
0E00
0E00
ENDCHAR
STARTCHAR 0038
ENCODING 56
SWIDTH 504 0
DWIDTH 21 0
BBX 17 26 2 0
BITMAP
07F000
1FFC00
3FFE00
3C1F00
780F00
700700
700700
700700
780700
780E00
3C1E00
3FBC00
0FF800
1FFC00
3C7E00
781F00
700700
F00780
F00780
F00780
F00780
F00700
7C1F00
3FFE00
1FFC00
07F000
ENDCHAR
STARTCHAR 0039
ENCODING 57
SWIDTH 504 0
DWIDTH 21 0
BBX 17 26 2 0
BITMAP
07E000
1FF800
3FFC00
7C3E00
780F00
700F00
F00700
F00700
F00780
F00780
F00780
780780
7C0F80
3FFF80
1FFF80
07F700
000F00
000F00
000E00
001E00
003C00
007C00
03F800
3FE000
3FC000
3C0000
ENDCHAR
STARTCHAR 003A
ENCODING 58
SWIDTH 504 0
DWIDTH 21 0
BBX 7 20 7 0
BITMAP
38
7C
FE
FE
7C
38
00
00
00
00
00
00
00
00
38
7C
FE
FE
7C
38
ENDCHAR
STARTCHAR 003B
ENCODING 59
SWIDTH 504 0
DWIDTH 21 0
BBX 9 26 5 -6
BITMAP
0E00
1F00
3F80
3F80
1F00
0E00
0000
0000
0000
0000
0000
0000
0000
0000
0E00
1F00
1F80
3F80
1F80
0F80
0700
0F00
3E00
FC00
7800
6000
ENDCHAR
STARTCHAR 003C
ENCODING 60
SWIDTH 504 0
DWIDTH 21 0
BBX 17 17 2 2
BITMAP
000100
000780
003F80
00FF00
03FC00
0FE000
7F8000
FC0000
F00000
FC0000
7F8000
1FE000
03FC00
00FF00
003F80
000780
000100
ENDCHAR
STARTCHAR 003D
ENCODING 61
SWIDTH 504 0
DWIDTH 21 0
BBX 17 11 2 6
BITMAP
FFFF80
FFFF80
FFFF80
000000
000000
000000
000000
000000
FFFF80
FFFF80
FFFF80
ENDCHAR
STARTCHAR 003E
ENCODING 62
SWIDTH 504 0
DWIDTH 21 0
BBX 17 17 2 2
BITMAP
400000
780000
FE0000
7F8000
0FE000
03FC00
00FF00
001F80
000780
001F80
007F00
03FC00
0FE000
7F8000
FE0000
780000
400000
ENDCHAR
STARTCHAR 003F
ENCODING 63
SWIDTH 504 0
DWIDTH 21 0
BBX 13 26 4 0
BITMAP
3FC0
FFE0
FFF0
40F8
0078
0038
0038
0078
0070
00E0
01C0
0380
0700
0F00
0E00
0E00
0000
0000
0000
0000
0E00
1F00
1F00
1F00
1F00
0E00
ENDCHAR
STARTCHAR 0040
ENCODING 64
SWIDTH 504 0
DWIDTH 21 0
BBX 18 32 2 -6
BITMAP
01F800
07FE00
0FFF00
1E0F00
3C0780
380380
780380
7003C0
7003C0
F03FC0
E0FFC0
E1FFC0
E1E3C0
E3C3C0
E383C0
E383C0
E383C0
E383C0
E383C0
E3C3C0
F1E3C0
F1FFC0
70FFC0
703F80
780000
380000
3C0000
1E0000
0F8000
07FE00
03FF00
00FE00
ENDCHAR
STARTCHAR 0041
ENCODING 65
SWIDTH 504 0
DWIDTH 21 0
BBX 20 26 0 0
BITMAP
00F800
00F800
01FC00
01DC00
01DC00
03DE00
038E00
038E00
078F00
070700
070700
0F0780
0E0380
0E0380
0E0380
1C03C0
1FFFC0
1FFFC0
3FFFE0
3800E0
3800E0
3800E0
7800F0
7000F0
700070
F00070
ENDCHAR
STARTCHAR 0042
ENCODING 66
SWIDTH 504 0
DWIDTH 21 0
BBX 17 26 2 0
BITMAP
7FE000
FFF800
FFFC00
F03E00
F01E00
F00F00
F00F00
F00F00
F00E00
F01E00
F03C00
FFF800
FFF800
FFFE00
F01F00
F00F00
F00780
F00780
F00780
F00780
F00780
F00F00
F03F00
FFFE00
FFFC00
7FE000
ENDCHAR
STARTCHAR 0043
ENCODING 67
SWIDTH 504 0
DWIDTH 21 0
BBX 17 26 2 0
BITMAP
00FC00
07FF00
0FFF80
1F0780
3E0100
3C0000
780000
700000
F00000
F00000
F00000
F00000
E00000
E00000
E00000
F00000
F00000
F00000
700000
780000
7C0000
3E0000
1F0180
0FFF80
07FF80
01FE00
ENDCHAR
STARTCHAR 0044
ENCODING 68
SWIDTH 504 0
DWIDTH 21 0
BBX 17 26 2 0
BITMAP
7F8000
FFF000
FFF800
F07C00
F01E00
F00F00
F00F00
F00780
F00780
F00780
F00380
F00380
F00380
F00380
F00380
F00380
F00780
F00780
F00780
F00F00
F00F00
F01E00
F07C00
FFF800
FFF000
7FC000
ENDCHAR
STARTCHAR 0045
ENCODING 69
SWIDTH 504 0
DWIDTH 21 0
BBX 15 26 4 0
BITMAP
FFFC
FFFC
FFFC
E000
E000
E000
E000
E000
E000
E000
E000
FFF8
FFF8
FFF8
E000
E000
E000
E000
E000
E000
E000
E000
E000
FFFE
FFFE
FFFE
ENDCHAR
STARTCHAR 0046
ENCODING 70
SWIDTH 504 0
DWIDTH 21 0
BBX 15 26 4 0
BITMAP
FFFE
FFFE
FFFE
E000
E000
E000
E000
E000
E000
E000
E000
FFF8
FFF8
FFF8
E000
E000
E000
E000
E000
E000
E000
E000
E000
E000
E000
E000
ENDCHAR
STARTCHAR 0047
ENCODING 71
SWIDTH 504 0
DWIDTH 21 0
BBX 17 26 2 0
BITMAP
01FC00
07FF00
0FFF80
1F0700
3E0100
3C0000
780000
780000
F00000
F00000
F00000
F00000
E00000
E00380
E00380
F00380
F00380
F00380
700380
780380
7C0380
3E0380
1F0380
0FFF80
07FF80
01FE00
ENDCHAR
STARTCHAR 0048
ENCODING 72
SWIDTH 504 0
DWIDTH 21 0
BBX 17 26 2 0
BITMAP
E00380
E00380
E00380
E00380
E00380
E00380
E00380
E00380
E00380
E00380
E00380
FFFF80
FFFF80
FFFF80
E00380
E00380
E00380
E00380
E00380
E00380
E00380
E00380
E00380
E00380
E00380
E00380
ENDCHAR
STARTCHAR 0049
ENCODING 73
SWIDTH 504 0
DWIDTH 21 0
BBX 13 26 4 0
BITMAP
FFF8
FFF8
FFF8
0700
0700
0700
0700
0700
0700
0700
0700
0700
0700
0700
0700
0700
0700
0700
0700
0700
0700
0700
0700
FFF8
FFF8
FFF8
ENDCHAR
STARTCHAR 004A
ENCODING 74
SWIDTH 504 0
DWIDTH 21 0
BBX 16 26 2 0
BITMAP
1FFF
1FFF
1FFF
000F
000F
000F
000F
000F
000F
000F
000F
000F
000F
000F
000F
000F
000F
000F
000F
000E
000E
401E
703E
FFFC
7FF8
1FE0
ENDCHAR
STARTCHAR 004B
ENCODING 75
SWIDTH 504 0
DWIDTH 21 0
BBX 17 26 3 0
BITMAP
E00F00
E00F00
E01E00
E03C00
E07C00
E07800
E0F000
E1E000
E3C000
E7C000
EF8000
EF0000
FE0000
FF0000
EF8000
E7C000
E3E000
E1F000
E0F800
E07C00
E03C00
E01E00
E00F00
E00F00
E00780
E00780
ENDCHAR
STARTCHAR 004C
ENCODING 76
SWIDTH 504 0
DWIDTH 21 0
BBX 15 26 4 0
BITMAP
E000
E000
E000
E000
E000
E000
E000
E000
E000
E000
E000
E000
E000
E000
E000
E000
E000
E000
E000
E000
E000
E000
E000
FFFE
FFFE
FFFE
ENDCHAR
STARTCHAR 004D
ENCODING 77
SWIDTH 504 0
DWIDTH 21 0
BBX 19 26 1 0
BITMAP
3C0780
3C0780
3C0780
3E0F80
3E0F80
360D80
370DC0
771DC0
7319C0
7319C0
73B9C0
71B9C0
71B1C0
71F1C0
70F1C0
70E1C0
7001C0
7001C0
7001C0
7001C0
7001C0
7001C0
F001C0
F001E0
F001E0
F001E0
ENDCHAR
STARTCHAR 004E
ENCODING 78
SWIDTH 504 0
DWIDTH 21 0
BBX 17 26 2 0
BITMAP
F00380
F80380
F80380
FC0380
FC0380
EE0380
EE0380
E70380
E70380
E38380
E38380
E1C380
E1C380
E0E380
E0E380
E07380
E07380
E07B80
E03B80
E03B80
E01F80
E01F80
E00F80
E00F80
E00780
E00780
ENDCHAR
STARTCHAR 004F
ENCODING 79
SWIDTH 504 0
DWIDTH 21 0
BBX 19 26 1 0
BITMAP
03F800
0FFE00
1FFF00
1E0F00
3C0780
7803C0
7803C0
7001C0
7001C0
F001E0
F001E0
F001E0
F001E0
F001E0
F001E0
F001E0
F001E0
7001C0
7001C0
7803C0
7803C0
3C0780
1E0F00
1FFF00
0FFE00
03F800
ENDCHAR
STARTCHAR 0050
ENCODING 80
SWIDTH 504 0
DWIDTH 21 0
BBX 16 26 3 0
BITMAP
7FE0
FFF8
FFFC
F03E
F01E
F00F
F00F
F007
F007
F00F
F00F
F01E
F03E
FFFC
FFF8
FFE0
F000
F000
F000
F000
F000
F000
F000
F000
F000
F000
ENDCHAR
STARTCHAR 0051
ENCODING 81
SWIDTH 504 0
DWIDTH 21 0
BBX 19 32 1 -6
BITMAP
03F800
0FFE00
1FFF00
1E0F00
3C0780
7803C0
7803C0
7001C0
7001C0
F001E0
F001E0
F001E0
F001E0
F001E0
F001E0
F001E0
F001E0
7001C0
7001C0
7803C0
7803C0
3C0780
3E0F80
1FFF00
0FFE00
03F800
00E000
00F000
007E00
003FC0
001F80
000380
ENDCHAR
STARTCHAR 0052
ENCODING 82
SWIDTH 504 0
DWIDTH 21 0
BBX 17 26 2 0
BITMAP
7FE000
FFF800
FFFC00
F03E00
F01E00
F00F00
F00F00
F00700
F00700
F00F00
F00F00
F01E00
F03E00
FFFC00
FFF800
FFF000
F07000
F07800
F03800
F01C00
F01E00
F00E00
F00F00
F00700
F00780
F00380
ENDCHAR
STARTCHAR 0053
ENCODING 83
SWIDTH 504 0
DWIDTH 21 0
BBX 17 26 2 0
BITMAP
03F800
0FFE00
3FFE00
3C0E00
780200
780000
700000
700000
780000
7C0000
3F0000
1FC000
0FF000
03FC00
007E00
001F00
000F00
000780
000780
000780
000780
400F00
701F00
FFFE00
7FFC00
0FF000
ENDCHAR
STARTCHAR 0054
ENCODING 84
SWIDTH 504 0
DWIDTH 21 0
BBX 17 26 2 0
BITMAP
FFFF80
FFFF80
FFFF80
01C000
01C000
01C000
01C000
01C000
01C000
01C000
01C000
01C000
01C000
01C000
01C000
01C000
01C000
01C000
01C000
01C000
01C000
01C000
01C000
01C000
01C000
01C000
ENDCHAR
STARTCHAR 0055
ENCODING 85
SWIDTH 504 0
DWIDTH 21 0
BBX 17 26 2 0
BITMAP
E00380
E00380
E00380
E00380
E00380
E00380
E00380
E00380
E00380
E00380
E00380
E00380
E00380
E00380
E00380
E00380
E00380
E00780
F00780
F00780
F00780
780F00
7C1F00
3FFE00
1FFC00
07F000
ENDCHAR
STARTCHAR 0056
ENCODING 86
SWIDTH 504 0
DWIDTH 21 0
BBX 19 26 1 0
BITMAP
E000E0
F000E0
F001E0
F001E0
7001C0
7801C0
7803C0
7803C0
380380
3C0780
3C0780
1C0700
1C0700
1E0F00
0E0E00
0E0E00
0F1E00
0F1E00
071C00
07BC00
07BC00
03B800
03F800
03F000
01F000
01F000
ENDCHAR
STARTCHAR 0057
ENCODING 87
SWIDTH 504 0
DWIDTH 21 0
BBX 19 26 1 0
BITMAP
F001E0
F001E0
F001E0
F001E0
7001C0
7001C0
7001C0
7001C0
7001C0
7001C0
70E1C0
71E1C0
71F1C0
71B1C0
73B1C0
73B9C0
7319C0
7319C0
771DC0
761D80
360D80
3E0F80
3E0F80
3C0780
3C0780
3C0780
ENDCHAR
STARTCHAR 0058
ENCODING 88
SWIDTH 504 0
DWIDTH 21 0
BBX 19 26 1 0
BITMAP
7801C0
7803C0
3C0780
3C0780
1E0F00
0E0E00
0F1E00
079C00
07BC00
03F800
03F800
01F000
00E000
01F000
03F800
03F800
07BC00
071C00
0F1E00
1E0F00
1E0F00
3C0780
3C0780
7803C0
7803C0
F001E0
ENDCHAR
STARTCHAR 0059
ENCODING 89
SWIDTH 504 0
DWIDTH 21 0
BBX 19 26 1 0
BITMAP
F001E0
F001E0
7001C0
7803C0
7803C0
3C0780
3C0780
1E0F00
1E0F00
0F1E00
0F1E00
07BC00
03B800
03F800
01F000
01F000
00E000
00E000
00E000
00E000
00E000
00E000
00E000
00E000
00E000
00E000
ENDCHAR
STARTCHAR 005A
ENCODING 90
SWIDTH 504 0
DWIDTH 21 0
BBX 17 26 2 0
BITMAP
7FFF80
7FFF80
7FFF80
000F00
000F00
001E00
003C00
003C00
007800
00F000
00F000
01E000
01C000
03C000
078000
070000
0F0000
0E0000
1E0000
3C0000
3C0000
780000
700000
FFFF80
FFFF80
FFFF80
ENDCHAR
STARTCHAR 005B
ENCODING 91
SWIDTH 504 0
DWIDTH 21 0
BBX 10 36 6 -7
BITMAP
FFC0
FFC0
FFC0
E000
E000
E000
E000
E000
E000
E000
E000
E000
E000
E000
E000
E000
E000
E000
E000
E000
E000
E000
E000
E000
E000
E000
E000
E000
E000
E000
E000
E000
E000
FFC0
FFC0
FFC0
ENDCHAR
STARTCHAR 005C
ENCODING 92
SWIDTH 504 0
DWIDTH 21 0
BBX 15 36 3 -7
BITMAP
F000
F000
7000
7800
7800
3800
3C00
3C00
1C00
1E00
1E00
0E00
0E00
0F00
0700
0700
0780
0380
0380
03C0
01C0
01C0
01E0
01E0
00E0
00F0
00F0
0070
0078
0078
0038
003C
003C
001C
001E
001E
ENDCHAR
STARTCHAR 005D
ENCODING 93
SWIDTH 504 0
DWIDTH 21 0
BBX 10 36 5 -7
BITMAP
FFC0
FFC0
FFC0
01C0
01C0
01C0
01C0
01C0
01C0
01C0
01C0
01C0
01C0
01C0
01C0
01C0
01C0
01C0
01C0
01C0
01C0
01C0
01C0
01C0
01C0
01C0
01C0
01C0
01C0
01C0
01C0
01C0
01C0
FFC0
FFC0
FFC0
ENDCHAR
STARTCHAR 005E
ENCODING 94
SWIDTH 504 0
DWIDTH 21 0
BBX 17 14 2 12
BITMAP
01C000
03E000
07F000
07F000
0F7800
0E3800
1E3C00
1C1C00
3C1E00
780F00
780F00
F00780
E00380
600300
ENDCHAR
STARTCHAR 005F
ENCODING 95
SWIDTH 504 0
DWIDTH 21 0
BBX 21 3 0 -7
BITMAP
FFFFF8
FFFFF8
FFFFF8
ENDCHAR
STARTCHAR 0060
ENCODING 96
SWIDTH 504 0
DWIDTH 21 0
BBX 7 7 7 22
BITMAP
20
60
F0
78
3C
1E
04
ENDCHAR
STARTCHAR 0061
ENCODING 97
SWIDTH 504 0
DWIDTH 21 0
BBX 16 19 2 0
BITMAP
0FF0
1FFC
1FFE
101F
000F
0007
0007
07FF
1FFF
3FFF
7C07
7007
F007
F007
7007
7C07
3FFF
1FFF
07FE
ENDCHAR
STARTCHAR 0062
ENCODING 98
SWIDTH 504 0
DWIDTH 21 0
BBX 16 29 3 0
BITMAP
E000
E000
E000
E000
E000
E000
E000
E000
E000
E000
E7E0
FFF8
FFFC
F83E
F01E
E00F
E00F
E007
E007
E007
E007
E007
E00F
E00F
E01E
E07E
FFFC
FFF0
3FC0
ENDCHAR
STARTCHAR 0063
ENCODING 99
SWIDTH 504 0
DWIDTH 21 0
BBX 17 19 2 0
BITMAP
01FE00
0FFF00
1FFF00
3F0100
7C0000
780000
F00000
F00000
F00000
F00000
F00000
F00000
F00000
780000
7C0000
3F0180
1FFF80
0FFF80
01FE00
ENDCHAR
STARTCHAR 0064
ENCODING 100
SWIDTH 504 0
DWIDTH 21 0
BBX 16 29 2 0
BITMAP
0007
0007
0007
0007
0007
0007
0007
0007
0007
0007
07E7
1FFF
3FFF
7C1F
780F
F007
F007
E007
E007
E007
E007
E007
F007
F007
7807
7E07
3FFF
0FFF
03FC
ENDCHAR
STARTCHAR 0065
ENCODING 101
SWIDTH 504 0
DWIDTH 21 0
BBX 17 19 2 0
BITMAP
03F000
0FFC00
3FFE00
3E1F00
780F00
F00780
F00780
E00380
FFFF80
FFFF80
FFFF80
E00000
E00000
F00000
780000
7E0200
3FFF00
0FFF00
03FC00
ENDCHAR
STARTCHAR 0066
ENCODING 102
SWIDTH 504 0
DWIDTH 21 0
BBX 17 29 3 0
BITMAP
00FE00
03FF80
07FF80
078180
0F0000
0F0000
0E0000
0E0000
0E0000
0E0000
FFFE00
FFFE00
FFFE00
0E0000
0E0000
0E0000
0E0000
0E0000
0E0000
0E0000
0E0000
0E0000
0E0000
0E0000
0E0000
0E0000
0E0000
0E0000
0E0000
ENDCHAR
STARTCHAR 0067
ENCODING 103
SWIDTH 504 0
DWIDTH 21 0
BBX 16 26 2 -7
BITMAP
07FC
1FFF
3FFF
7C07
7807
F007
F007
E007
E007
E007
E007
F007
F007
F807
7C1F
3FFF
1FFF
07E7
000F
000F
000F
001E
603E
7FFC
7FF8
3FE0
ENDCHAR
STARTCHAR 0068
ENCODING 104
SWIDTH 504 0
DWIDTH 21 0
BBX 15 29 3 0
BITMAP
E000
E000
E000
E000
E000
E000
E000
E000
E000
E000
EFE0
FFF8
FFFC
F03C
E01E
E01E
E01E
E00E
E00E
E00E
E00E
E00E
E00E
E00E
E00E
E00E
E00E
E00E
E00E
ENDCHAR
STARTCHAR 0069
ENCODING 105
SWIDTH 504 0
DWIDTH 21 0
BBX 17 27 2 0
BITMAP
070000
0F8000
0F8000
0F8000
070000
000000
000000
000000
FF8000
FF8000
FF8000
038000
038000
038000
038000
038000
038000
038000
038000
038000
038000
038000
03C000
03E100
01FF80
00FF80
007E00
ENDCHAR
STARTCHAR 006A
ENCODING 106
SWIDTH 504 0
DWIDTH 21 0
BBX 13 34 3 -7
BITMAP
00F0
01F0
01F8
01F0
00F0
0000
0000
0000
3FF8
3FF8
3FF8
0038
0038
0038
0038
0038
0038
0038
0038
0038
0038
0038
0038
0038
0038
0038
0038
0038
0038
0078
60F0
FFF0
FFE0
3F80
ENDCHAR
STARTCHAR 006B
ENCODING 107
SWIDTH 504 0
DWIDTH 21 0
BBX 17 29 3 0
BITMAP
E00000
E00000
E00000
E00000
E00000
E00000
E00000
E00000
E00000
E00000
E00F00
E01E00
E03C00
E07800
E0F000
E3E000
E7C000
EF8000
FE0000
FF0000
EF8000
E3C000
E1E000
E0F000
E07800
E03C00
E01E00
E00F00
E00780
ENDCHAR
STARTCHAR 006C
ENCODING 108
SWIDTH 504 0
DWIDTH 21 0
BBX 17 29 2 0
BITMAP
FF8000
FF8000
FF8000
038000
038000
038000
038000
038000
038000
038000
038000
038000
038000
038000
038000
038000
038000
038000
038000
038000
038000
038000
038000
03C000
03C000
03E100
01FF80
00FF80
007E00
ENDCHAR
STARTCHAR 006D
ENCODING 109
SWIDTH 504 0
DWIDTH 21 0
BBX 17 19 2 0
BITMAP
7E3E00
FFFF00
FFFF80
E3E780
E1C380
E1C380
E1C380
E1C380
E1C380
E1C380
E1C380
E00380
E00380
E00380
E00380
E00380
E00380
E00380
E00380
ENDCHAR
STARTCHAR 006E
ENCODING 110
SWIDTH 504 0
DWIDTH 21 0
BBX 15 19 3 0
BITMAP
3FE0
FFF8
FFFC
E03C
E01E
E01E
E00E
E00E
E00E
E00E
E00E
E00E
E00E
E00E
E00E
E00E
E00E
E00E
E00E
ENDCHAR
STARTCHAR 006F
ENCODING 111
SWIDTH 504 0
DWIDTH 21 0
BBX 17 19 2 0
BITMAP
07F000
1FFC00
3FFE00
7C1F00
780F00
F00780
F00780
E00380
E00380
E00380
E00380
E00380
F00780
F00780
780F00
7C1F00
3FFE00
1FFC00
07E000
ENDCHAR
STARTCHAR 0070
ENCODING 112
SWIDTH 504 0
DWIDTH 21 0
BBX 16 26 3 -7
BITMAP
3FC0
FFF0
FFFC
E07E
E01E
E00F
E00F
E007
E007
E007
E007
E007
E00F
E00F
E01E
F83E
FFFC
FFF8
E7E0
E000
E000
E000
E000
E000
E000
E000
ENDCHAR
STARTCHAR 0071
ENCODING 113
SWIDTH 504 0
DWIDTH 21 0
BBX 16 26 2 -7
BITMAP
03FC
0FFF
3FFF
7E07
7807
F007
F007
E007
E007
E007
E007
E007
F007
F007
7807
7C1F
3FFF
1FFF
07E7
0007
0007
0007
0007
0007
0007
0007
ENDCHAR
STARTCHAR 0072
ENCODING 114
SWIDTH 504 0
DWIDTH 21 0
BBX 14 19 4 0
BITMAP
0FFC
FFFC
FFFC
F804
F000
F000
F000
F000
F000
F000
F000
F000
F000
F000
F000
F000
F000
F000
F000
ENDCHAR
STARTCHAR 0073
ENCODING 115
SWIDTH 504 0
DWIDTH 21 0
BBX 15 19 3 0
BITMAP
0FF8
3FFC
7FFC
F80C
F000
F000
F800
7E00
3FC0
1FF0
03FC
007E
001E
000E
800E
F03E
FFFC
FFF8
1FE0
ENDCHAR
STARTCHAR 0074
ENCODING 116
SWIDTH 504 0
DWIDTH 21 0
BBX 16 25 3 0
BITMAP
0E00
0E00
0E00
0E00
0E00
0E00
FFFE
FFFE
FFFE
0E00
0E00
0E00
0E00
0E00
0E00
0E00
0E00
0E00
0E00
0E00
0F00
0F82
07FF
07FF
01FC
ENDCHAR
STARTCHAR 0075
ENCODING 117
SWIDTH 504 0
DWIDTH 21 0
BBX 15 19 3 0
BITMAP
E00E
E00E
E00E
E00E
E00E
E00E
E00E
E00E
E00E
E00E
E00E
E00E
F00E
F00E
F00E
7C0E
7FFE
3FFE
0FF8
ENDCHAR
STARTCHAR 0076
ENCODING 118
SWIDTH 504 0
DWIDTH 21 0
BBX 19 19 1 0
BITMAP
F001E0
7001C0
7803C0
7803C0
380380
3C0780
3C0780
1C0700
1E0F00
0E0E00
0F1E00
0F1E00
071C00
07BC00
03B800
03F800
01F000
01F000
00E000
ENDCHAR
STARTCHAR 0077
ENCODING 119
SWIDTH 504 0
DWIDTH 21 0
BBX 19 19 1 0
BITMAP
E000E0
E000E0
E000E0
E000E0
E0E0E0
F0E1E0
70F1C0
71F1C0
71F1C0
71B9C0
73B9C0
73B9C0
3F1F80
3F1F80
3E0F80
3E0F80
3E0F80
1C0700
1C0700
ENDCHAR
STARTCHAR 0078
ENCODING 120
SWIDTH 504 0
DWIDTH 21 0
BBX 19 19 1 0
BITMAP
7803C0
3C0780
3C0700
1E0F00
0F1E00
07BC00
07B800
03F800
01F000
01F000
03F800
03B800
079C00
0F1E00
1E0F00
1C0780
380780
7803C0
F001E0
ENDCHAR
STARTCHAR 0079
ENCODING 121
SWIDTH 504 0
DWIDTH 21 0
BBX 17 26 2 -7
BITMAP
F00380
F00780
700780
780700
780700
380F00
3C0F00
3C0E00
1C0E00
1E1E00
0E1C00
0F1C00
0F3C00
073800
07B800
03F800
03F000
01F000
01E000
00E000
01C000
03C000
078000
FF0000
FE0000
FC0000
ENDCHAR
STARTCHAR 007A
ENCODING 122
SWIDTH 504 0
DWIDTH 21 0
BBX 15 19 3 0
BITMAP
7FFE
7FFE
7FFE
003C
0078
00F0
01E0
03E0
03C0
0780
0F00
1E00
1E00
3C00
7800
7800
FFFE
FFFE
FFFE
ENDCHAR
STARTCHAR 007B
ENCODING 123
SWIDTH 504 0
DWIDTH 21 0
BBX 15 36 3 -7
BITMAP
00FE
03FE
03FE
0780
0700
0700
0700
0700
0700
0700
0700
0700
0700
0700
0700
0F00
1E00
FE00
F800
FE00
1E00
0F00
0700
0700
0700
0700
0700
0700
0700
0700
0700
0700
0780
03FE
03FE
00FE
ENDCHAR
STARTCHAR 007C
ENCODING 124
SWIDTH 504 0
DWIDTH 21 0
BBX 3 36 9 -7
BITMAP
E0
E0
E0
E0
E0
E0
E0
E0
E0
E0
E0
E0
E0
E0
E0
E0
E0
E0
E0
E0
E0
E0
E0
E0
E0
E0
E0
E0
E0
E0
E0
E0
E0
E0
E0
E0
ENDCHAR
STARTCHAR 007D
ENCODING 125
SWIDTH 504 0
DWIDTH 21 0
BBX 15 36 3 -7
BITMAP
FE00
FF80
FF80
03C0
01C0
01C0
01C0
01C0
01C0
01C0
01C0
01C0
01C0
01C0
01C0
01E0
00F0
00FE
003E
00FE
00E0
01E0
01C0
01C0
01C0
01C0
01C0
01C0
01C0
01C0
01C0
01C0
03C0
FF80
FF80
FE00
ENDCHAR
STARTCHAR 007E
ENCODING 126
SWIDTH 504 0
DWIDTH 21 0
BBX 17 6 2 8
BITMAP
1E0180
7F8380
7FE380
E3FF00
C0FF00
C03C00
ENDCHAR
STARTCHAR 00A0
ENCODING 160
SWIDTH 504 0
DWIDTH 21 0
BBX 0 0 0 0
BITMAP
ENDCHAR
STARTCHAR 00A1
ENCODING 161
SWIDTH 504 0
DWIDTH 21 0
BBX 5 27 8 -7
BITMAP
70
F8
F8
F8
F8
70
00
00
00
00
70
70
70
70
70
70
70
70
70
70
70
70
70
70
70
70
70
ENDCHAR
STARTCHAR 00A2
ENCODING 162
SWIDTH 504 0
DWIDTH 21 0
BBX 17 30 2 -4
BITMAP
007000
007000
007000
007000
007000
01FE00
0FFF00
1FFF00
3F0300
7C0000
780000
700000
F00000
F00000
F00000
F00000
F00000
F00000
F00000
780000
7C0000
3F0100
1FFF80
0FFF80
03FF00
007000
007000
007000
007000
007000
ENDCHAR
STARTCHAR 00A3
ENCODING 163
SWIDTH 504 0
DWIDTH 21 0
BBX 17 26 2 0
BITMAP
00FE00
03FF00
07FF00
0F8300
0F0000
0E0000
0E0000
1E0000
1E0000
1E0000
1E0000
1E0000
FFFC00
FFFC00
FFFC00
1E0000
1E0000
1E0000
1E0000
1E0000
1E0000
1C0000
1C0000
1FFF80
1FFF80
3FFF80
ENDCHAR
STARTCHAR 00A4
ENCODING 164
SWIDTH 504 0
DWIDTH 21 0
BBX 17 18 2 4
BITMAP
400100
E00380
F3E780
7FFF00
3FFE00
3C1E00
380E00
700700
700700
700700
700700
380E00
3C1E00
3FFE00
7FFF00
F3E780
E00380
400100
ENDCHAR
STARTCHAR 00A5
ENCODING 165
SWIDTH 504 0
DWIDTH 21 0
BBX 19 26 1 0
BITMAP
F001E0
F001E0
7803C0
7803C0
3C0380
3C0780
1E0F00
0E0E00
0F1E00
071C00
07BC00
03F800
01F000
3FFF80
3FFF80
3FFF80
00E000
00E000
00E000
3FFF80
3FFF80
3FFF80
00E000
00E000
00E000
00E000
ENDCHAR
STARTCHAR 00A6
ENCODING 166
SWIDTH 504 0
DWIDTH 21 0
BBX 3 36 9 -7
BITMAP
E0
E0
E0
E0
E0
E0
E0
E0
E0
E0
E0
E0
E0
E0
00
00
00
00
00
00
00
00
E0
E0
E0
E0
E0
E0
E0
E0
E0
E0
E0
E0
E0
E0
ENDCHAR
STARTCHAR 00A7
ENCODING 167
SWIDTH 504 0
DWIDTH 21 0
BBX 15 31 3 -4
BITMAP
07F0
1FFC
3FFC
3C0C
7800
7000
7800
7800
3F00
1FC0
3FF0
7BFC
707C
E01E
E00E
E00E
F00E
F81E
7E1C
3FF8
1FF0
03F8
00FC
003C
001C
001C
001C
407C
FFF8
FFF0
3FC0
ENDCHAR
STARTCHAR 00A8
ENCODING 168
SWIDTH 504 0
DWIDTH 21 0
BBX 11 4 5 23
BITMAP
60C0
F1E0
F1E0
E0E0
ENDCHAR
STARTCHAR 00A9
ENCODING 169
SWIDTH 504 0
DWIDTH 21 0
BBX 19 20 1 0
BITMAP
01F800
07FE00
1E0F00
380380
380380
70F9C0
63F0C0
6300C0
E700C0
E700E0
E700E0
E700C0
6780C0
63F0C0
71F9C0
380380
380380
1E0F00
0FFC00
01F000
ENDCHAR
STARTCHAR 00AA
ENCODING 170
SWIDTH 504 0
DWIDTH 21 0
BBX 11 13 5 13
BITMAP
7F80
3FC0
01E0
00E0
00E0
1FE0
7FE0
F060
E060
E060
E060
7FE0
3FE0
ENDCHAR
STARTCHAR 00AB
ENCODING 171
SWIDTH 504 0
DWIDTH 21 0
BBX 14 15 3 3
BITMAP
0C08
0E1C
1C1C
3C38
3878
70F0
F0E0
E1E0
F0E0
70F0
3878
3838
1C3C
0E1C
0808
ENDCHAR
STARTCHAR 00AC
ENCODING 172
SWIDTH 504 0
DWIDTH 21 0
BBX 17 13 2 2
BITMAP
FFFF80
FFFF80
FFFF80
000380
000380
000380
000380
000380
000380
000380
000380
000380
000380
ENDCHAR
STARTCHAR 00AD
ENCODING 173
SWIDTH 504 0
DWIDTH 21 0
BBX 9 3 6 9
BITMAP
FF80
FF80
FF80
ENDCHAR
STARTCHAR 00AE
ENCODING 174
SWIDTH 504 0
DWIDTH 21 0
BBX 19 20 1 0
BITMAP
01F800
07FE00
1E0F00
380380
380380
73F1C0
63F8C0
6318C0
E318C0
E318E0
E3F8E0
E3F0C0
6338C0
6318C0
731DC0
380380
380380
1E0F00
0FFC00
01F000
ENDCHAR
STARTCHAR 00AF
ENCODING 175
SWIDTH 504 0
DWIDTH 21 0
BBX 11 3 5 24
BITMAP
FFE0
FFE0
FFE0
ENDCHAR
STARTCHAR 00B0
ENCODING 176
SWIDTH 504 0
DWIDTH 21 0
BBX 11 10 5 19
BITMAP
1F00
3F80
71C0
E0E0
E0E0
E0E0
E0E0
71C0
3F80
1F00
ENDCHAR
STARTCHAR 00B1
ENCODING 177
SWIDTH 504 0
DWIDTH 21 0
BBX 17 24 2 0
BITMAP
01C000
01C000
01C000
01C000
01C000
01C000
01C000
01C000
FFFF80
FFFF80
FFFF80
01C000
01C000
01C000
01C000
01C000
01C000
01C000
01C000
000000
000000
FFFF80
FFFF80
FFFF80
ENDCHAR
STARTCHAR 00B2
ENCODING 178
SWIDTH 504 0
DWIDTH 21 0
BBX 11 14 5 12
BITMAP
3F00
FF80
61C0
01C0
01C0
01C0
0380
0700
1E00
3C00
3800
7000
7FE0
7FE0
ENDCHAR
STARTCHAR 00B3
ENCODING 179
SWIDTH 504 0
DWIDTH 21 0
BBX 11 14 5 12
BITMAP
3F00
7F80
61C0
01C0
01C0
0380
1F00
1F80
01C0
00E0
00E0
41C0
FFC0
7F00
ENDCHAR
STARTCHAR 00B4
ENCODING 180
SWIDTH 504 0
DWIDTH 21 0
BBX 7 7 7 22
BITMAP
08
0C
1E
3C
78
F0
40
ENDCHAR
STARTCHAR 00B5
ENCODING 181
SWIDTH 504 0
DWIDTH 21 0
BBX 15 26 3 -7
BITMAP
E00E
E00E
E00E
E00E
E00E
E00E
E00E
E00E
E00E
E00E
E00E
F00E
F00E
F00E
F00E
FC0E
FFFE
FFFE
E7F8
E000
E000
E000
E000
E000
E000
E000
ENDCHAR
STARTCHAR 00B6
ENCODING 182
SWIDTH 504 0
DWIDTH 21 0
BBX 18 33 1 -7
BITMAP
01FF80
0FFFC0
1FFFC0
3FE1C0
7FE1C0
7FE1C0
FFE1C0
FFE1C0
FFE1C0
FFE1C0
FFE1C0
7FE1C0
7FE1C0
3FE1C0
1FE1C0
03E1C0
00E1C0
00E1C0
00E1C0
00E1C0
00E1C0
00E1C0
00E1C0
00E1C0
00E1C0
00E1C0
00E1C0
00E1C0
00E1C0
00E1C0
00E1C0
00E1C0
00E1C0
ENDCHAR
STARTCHAR 00B7
ENCODING 183
SWIDTH 504 0
DWIDTH 21 0
BBX 7 6 7 8
BITMAP
38
7C
FE
FE
7C
38
ENDCHAR
STARTCHAR 00B8
ENCODING 184
SWIDTH 504 0
DWIDTH 21 0
BBX 6 8 7 -7
BITMAP
18
38
38
38
1C
1C
FC
F8
ENDCHAR
STARTCHAR 00B9
ENCODING 185
SWIDTH 504 0
DWIDTH 21 0
BBX 11 14 5 12
BITMAP
0600
0E00
3E00
FE00
6600
0600
0600
0600
0600
0600
0600
0600
7FE0
7FE0
ENDCHAR
STARTCHAR 00BA
ENCODING 186
SWIDTH 504 0
DWIDTH 21 0
BBX 13 13 4 13
BITMAP
0F80
3FE0
7FF0
F078
E038
E038
E038
E038
E038
F078
7FF0
3FE0
0F80
ENDCHAR
STARTCHAR 00BB
ENCODING 187
SWIDTH 504 0
DWIDTH 21 0
BBX 14 15 4 3
BITMAP
4040
E1C0
E0E0
70F0
7870
3838
1C3C
1E1C
1C3C
3838
7870
70F0
E0E0
E1C0
40C0
ENDCHAR
STARTCHAR 00BC
ENCODING 188
SWIDTH 504 0
DWIDTH 21 0
BBX 19 26 1 0
BITMAP
0C00E0
3C01C0
7C0380
FC0380
DC0700
1C0700
1C0E00
1C1C00
1C1C00
1C3800
003000
007000
00E000
00E000
01C000
0383C0
0387C0
070FC0
070DC0
0E19C0
1C19C0
1C31C0
383FE0
383FE0
7001C0
E001C0
ENDCHAR
STARTCHAR 00BD
ENCODING 189
SWIDTH 504 0
DWIDTH 21 0
BBX 19 26 1 0
BITMAP
0C01C0
1C01C0
7C0380
FC0700
4C0700
0C0E00
0C0E00
0C1C00
0C3800
0C3800
007000
007000
00E000
01C000
01C000
038F80
031FC0
0708E0
0E00E0
0E00E0
1C01C0
380380
380F00
701E00
701FE0
E01FE0
ENDCHAR
STARTCHAR 00BE
ENCODING 190
SWIDTH 504 0
DWIDTH 21 0
BBX 19 26 1 0
BITMAP
7C00E0
FE01C0
4601C0
060380
3C0700
3E0700
070E00
870E00
FF1C00
FC3800
003800
007000
006000
00E000
01C000
01C3C0
0387C0
070FC0
070DC0
0E19C0
0E19C0
1C31C0
383FE0
383FE0
7001C0
7001C0
ENDCHAR
STARTCHAR 00BF
ENCODING 191
SWIDTH 504 0
DWIDTH 21 0
BBX 13 27 4 -7
BITMAP
0380
07C0
07C0
07C0
07C0
0380
0000
0000
0000
0000
0380
0380
0380
0780
0F00
1E00
3C00
7800
F000
F000
E000
F000
F000
F838
7FF8
3FF8
0FE0
ENDCHAR
STARTCHAR 00C0
ENCODING 192
SWIDTH 504 0
DWIDTH 21 0
BBX 20 35 0 0
BITMAP
004000
00E000
01E000
00F000
007800
001C00
000800
000000
000000
00F800
00F800
01FC00
01DC00
01DC00
03DE00
038E00
038E00
078F00
070700
070700
0F0780
0E0380
0E0380
0E0380
1C03C0
1FFFC0
1FFFC0
3FFFE0
3800E0
3800E0
3800E0
7800F0
7000F0
700070
F00070
ENDCHAR
STARTCHAR 00C1
ENCODING 193
SWIDTH 504 0
DWIDTH 21 0
BBX 20 35 0 0
BITMAP
001000
003800
003C00
007800
00F000
01C000
008000
000000
000000
00F800
00F800
01FC00
01DC00
01DC00
03DE00
038E00
038E00
078F00
070700
070700
0F0780
0E0380
0E0380
0E0380
1C03C0
1FFFC0
1FFFC0
3FFFE0
3800E0
3800E0
3800E0
7800F0
7000F0
700070
F00070
ENDCHAR
STARTCHAR 00C2
ENCODING 194
SWIDTH 504 0
DWIDTH 21 0
BBX 20 35 0 0
BITMAP
002000
007000
00F800
01FC00
03DE00
038E00
020200
000000
000000
00F800
00F800
01FC00
01DC00
01DC00
03DE00
038E00
038E00
078F00
070700
070700
0F0780
0E0380
0E0380
0E0380
1C03C0
1FFFC0
1FFFC0
3FFFE0
3800E0
3800E0
3800E0
7800F0
7000F0
700070
F00070
ENDCHAR
STARTCHAR 00C3
ENCODING 195
SWIDTH 504 0
DWIDTH 21 0
BBX 20 33 0 0
BITMAP
01E300
03FF00
07FE00
063C00
000000
000000
000000
00F800
00F800
01FC00
01DC00
01DC00
03DE00
038E00
038E00
078F00
070700
070700
0F0780
0E0380
0E0380
0E0380
1C03C0
1FFFC0
1FFFC0
3FFFE0
3800E0
3800E0
3800E0
7800F0
7000F0
700070
F00070
ENDCHAR
STARTCHAR 00C4
ENCODING 196
SWIDTH 504 0
DWIDTH 21 0
BBX 20 33 0 0
BITMAP
030600
078F00
078F00
070700
000000
000000
000000
00F800
00F800
01FC00
01DC00
01DC00
03DE00
038E00
038E00
078F00
070700
070700
0F0780
0E0380
0E0380
0E0380
1C03C0
1FFFC0
1FFFC0
3FFFE0
3800E0
3800E0
3800E0
7800F0
7000F0
700070
F00070
ENDCHAR
STARTCHAR 00C5
ENCODING 197
SWIDTH 504 0
DWIDTH 21 0
BBX 20 32 0 0
BITMAP
007000
01FC00
018C00
018C00
018C00
018C00
00F800
00F800
01FC00
01DC00
01DC00
03DE00
038E00
038E00
078F00
070700
070700
0F0780
0E0380
0E0380
1E03C0
1C03C0
1FFFC0
1FFFC0
3FFFE0
3800E0
3800E0
3800E0
7800F0
7000F0
700070
F00070
ENDCHAR
STARTCHAR 00C6
ENCODING 198
SWIDTH 504 0
DWIDTH 21 0
BBX 19 26 1 0
BITMAP
00FFE0
00FFE0
01FFE0
01F800
01B800
03B800
03B800
073800
073800
073800
0E3800
0E3FC0
0E3FC0
0E3FC0
1C3800
1C3800
1FF800
3FF800
3FF800
383800
383800
783800
703800
703FE0
703FE0
F03FE0
ENDCHAR
STARTCHAR 00C7
ENCODING 199
SWIDTH 504 0
DWIDTH 21 0
BBX 17 33 2 -7
BITMAP
00FC00
07FF00
0FFF80
1F0780
3E0100
3C0000
780000
700000
F00000
F00000
F00000
F00000
E00000
E00000
E00000
F00000
F00000
F00000
700000
780000
7C0000
3E0000
1F0180
0FFF80
07FF80
01FE00
007000
006000
007000
003800
003800
01F800
03F000
ENDCHAR
STARTCHAR 00C8
ENCODING 200
SWIDTH 504 0
DWIDTH 21 0
BBX 15 35 4 0
BITMAP
0400
0E00
0F00
0780
03C0
01C0
0080
0000
0000
FFFC
FFFC
FFFC
E000
E000
E000
E000
E000
E000
E000
E000
FFF8
FFF8
FFF8
E000
E000
E000
E000
E000
E000
E000
E000
E000
FFFE
FFFE
FFFE
ENDCHAR
STARTCHAR 00C9
ENCODING 201
SWIDTH 504 0
DWIDTH 21 0
BBX 15 35 4 0
BITMAP
0040
00E0
01E0
03C0
0780
0F00
0600
0000
0000
FFFC
FFFC
FFFC
E000
E000
E000
E000
E000
E000
E000
E000
FFF8
FFF8
FFF8
E000
E000
E000
E000
E000
E000
E000
E000
E000
FFFE
FFFE
FFFE
ENDCHAR
STARTCHAR 00CA
ENCODING 202
SWIDTH 504 0
DWIDTH 21 0
BBX 15 35 4 0
BITMAP
0100
0380
07C0
0FE0
1CF0
3870
1020
0000
0000
FFFC
FFFC
FFFC
E000
E000
E000
E000
E000
E000
E000
E000
FFF8
FFF8
FFF8
E000
E000
E000
E000
E000
E000
E000
E000
E000
FFFE
FFFE
FFFE
ENDCHAR
STARTCHAR 00CB
ENCODING 203
SWIDTH 504 0
DWIDTH 21 0
BBX 15 33 4 0
BITMAP
3870
3C78
3C78
3870
0000
0000
0000
FFFC
FFFC
FFFC
E000
E000
E000
E000
E000
E000
E000
E000
FFF8
FFF8
FFF8
E000
E000
E000
E000
E000
E000
E000
E000
E000
FFFE
FFFE
FFFE
ENDCHAR
STARTCHAR 00CC
ENCODING 204
SWIDTH 504 0
DWIDTH 21 0
BBX 13 35 4 0
BITMAP
0400
0E00
1E00
0F00
0380
01C0
0080
0000
0000
FFF8
FFF8
FFF8
0700
0700
0700
0700
0700
0700
0700
0700
0700
0700
0700
0700
0700
0700
0700
0700
0700
0700
0700
0700
FFF8
FFF8
FFF8
ENDCHAR
STARTCHAR 00CD
ENCODING 205
SWIDTH 504 0
DWIDTH 21 0
BBX 13 35 4 0
BITMAP
0080
01C0
03C0
0780
0F00
0E00
0400
0000
0000
FFF8
FFF8
FFF8
0700
0700
0700
0700
0700
0700
0700
0700
0700
0700
0700
0700
0700
0700
0700
0700
0700
0700
0700
0700
FFF8
FFF8
FFF8
ENDCHAR
STARTCHAR 00CE
ENCODING 206
SWIDTH 504 0
DWIDTH 21 0
BBX 13 35 4 0
BITMAP
0200
0700
0F80
1FC0
3DE0
38E0
2020
0000
0000
FFF8
FFF8
FFF8
0700
0700
0700
0700
0700
0700
0700
0700
0700
0700
0700
0700
0700
0700
0700
0700
0700
0700
0700
0700
FFF8
FFF8
FFF8
ENDCHAR
STARTCHAR 00CF
ENCODING 207
SWIDTH 504 0
DWIDTH 21 0
BBX 13 33 4 0
BITMAP
3060
78F0
78F0
7070
0000
0000
0000
FFF8
FFF8
FFF8
0700
0700
0700
0700
0700
0700
0700
0700
0700
0700
0700
0700
0700
0700
0700
0700
0700
0700
0700
0700
FFF8
FFF8
FFF8
ENDCHAR
STARTCHAR 00D0
ENCODING 208
SWIDTH 504 0
DWIDTH 21 0
BBX 18 26 1 0
BITMAP
1FE000
3FF800
3FFE00
383F00
380F00
380780
380380
3803C0
3803C0
3801C0
3801C0
FFC1C0
FFC1C0
FFC1C0
3801C0
3801C0
3803C0
3803C0
3803C0
380380
380780
380F00
383F00
3FFE00
3FF800
1FE000
ENDCHAR
STARTCHAR 00D1
ENCODING 209
SWIDTH 504 0
DWIDTH 21 0
BBX 17 33 2 0
BITMAP
078C00
0FFC00
1FF800
18F000
000000
000000
000000
F00380
F80380
F80380
FC0380
FC0380
EE0380
EE0380
E70380
E70380
E38380
E38380
E1C380
E1C380
E0E380
E0E380
E07380
E07380
E07B80
E03B80
E03B80
E01F80
E01F80
E00F80
E00F80
E00780
E00780
ENDCHAR
STARTCHAR 00D2
ENCODING 210
SWIDTH 504 0
DWIDTH 21 0
BBX 19 35 1 0
BITMAP
008000
01C000
03C000
01E000
007000
003800
001000
000000
000000
03F800
0FFE00
1FFF00
1E0F00
3C0780
7803C0
7803C0
7001C0
7001C0
F001E0
F001E0
F001E0
F001E0
F001E0
F001E0
F001E0
F001E0
7001C0
7001C0
7803C0
7803C0
3C0780
1E0F00
1FFF00
0FFE00
03F800
ENDCHAR
STARTCHAR 00D3
ENCODING 211
SWIDTH 504 0
DWIDTH 21 0
BBX 19 35 1 0
BITMAP
001000
003800
007800
00F000
01E000
01C000
008000
000000
000000
03F800
0FFE00
1FFF00
1E0F00
3C0780
7803C0
7803C0
7001C0
7001C0
F001E0
F001E0
F001E0
F001E0
F001E0
F001E0
F001E0
F001E0
7001C0
7001C0
7803C0
7803C0
3C0780
1E0F00
1FFF00
0FFE00
03F800
ENDCHAR
STARTCHAR 00D4
ENCODING 212
SWIDTH 504 0
DWIDTH 21 0
BBX 19 35 1 0
BITMAP
004000
00E000
01F000
03F800
07BC00
071C00
040400
000000
000000
03F800
0FFE00
1FFF00
1E0F00
3C0780
7803C0
7803C0
7001C0
7001C0
F001E0
F001E0
F001E0
F001E0
F001E0
F001E0
F001E0
F001E0
7001C0
7001C0
7803C0
7803C0
3C0780
1E0F00
1FFF00
0FFE00
03F800
ENDCHAR
STARTCHAR 00D5
ENCODING 213
SWIDTH 504 0
DWIDTH 21 0
BBX 19 33 1 0
BITMAP
03C600
07FE00
0FFC00
0C7800
000000
000000
000000
03F800
0FFE00
1FFF00
1E0F00
3C0780
7803C0
7803C0
7001C0
7001C0
F001E0
F001E0
F001E0
F001E0
F001E0
F001E0
F001E0
F001E0
7001C0
7001C0
7803C0
7803C0
3C0780
1E0F00
1FFF00
0FFE00
03F800
ENDCHAR
STARTCHAR 00D6
ENCODING 214
SWIDTH 504 0
DWIDTH 21 0
BBX 19 33 1 0
BITMAP
060C00
0F1E00
0F1E00
0E0E00
000000
000000
000000
03F800
0FFE00
1FFF00
1E0F00
3C0780
7803C0
7803C0
7001C0
7001C0
F001E0
F001E0
F001E0
F001E0
F001E0
F001E0
F001E0
F001E0
7001C0
7001C0
7803C0
7803C0
3C0780
1E0F00
1FFF00
0FFE00
03F800
ENDCHAR
STARTCHAR 00D7
ENCODING 215
SWIDTH 504 0
DWIDTH 21 0
BBX 15 15 3 3
BITMAP
2008
701C
F83E
7C7C
3EF8
1FF0
0FE0
07C0
0FE0
1EF0
3EF8
7C7C
F83E
701C
2008
ENDCHAR
STARTCHAR 00D8
ENCODING 216
SWIDTH 504 0
DWIDTH 21 0
BBX 19 28 1 -1
BITMAP
000300
03FB80
07FF80
1FFF00
1E0F80
3C0F80
781FC0
781FC0
703DC0
7039C0
F079E0
F071E0
F0F1E0
F0E1E0
F1E1E0
F1C1E0
F1C1E0
F381E0
F381C0
7701C0
7703C0
7E03C0
3E0780
3C0F00
1FFF00
3FFC00
3FF800
100000
ENDCHAR
STARTCHAR 00D9
ENCODING 217
SWIDTH 504 0
DWIDTH 21 0
BBX 17 35 2 0
BITMAP
010000
030000
078000
03C000
01E000
00F000
002000
000000
000000
E00380
E00380
E00380
E00380
E00380
E00380
E00380
E00380
E00380
E00380
E00380
E00380
E00380
E00380
E00380
E00380
E00380
E00780
F00780
F00780
F00780
780F00
7C1F00
3FFE00
1FFC00
07F000
ENDCHAR
STARTCHAR 00DA
ENCODING 218
SWIDTH 504 0
DWIDTH 21 0
BBX 17 35 2 0
BITMAP
002000
007000
00F000
01E000
03C000
038000
010000
000000
000000
E00380
E00380
E00380
E00380
E00380
E00380
E00380
E00380
E00380
E00380
E00380
E00380
E00380
E00380
E00380
E00380
E00380
E00780
F00780
F00780
F00780
780F00
7C1F00
3FFE00
1FFC00
07F000
ENDCHAR
STARTCHAR 00DB
ENCODING 219
SWIDTH 504 0
DWIDTH 21 0
BBX 17 35 2 0
BITMAP
008000
01C000
03E000
07F000
0F7800
0E3800
080800
000000
000000
E00380
E00380
E00380
E00380
E00380
E00380
E00380
E00380
E00380
E00380
E00380
E00380
E00380
E00380
E00380
E00380
E00380
E00780
F00780
F00780
F00780
780F00
7C1F00
3FFE00
1FFC00
07F000
ENDCHAR
STARTCHAR 00DC
ENCODING 220
SWIDTH 504 0
DWIDTH 21 0
BBX 17 33 2 0
BITMAP
0C1800
1E3C00
1E3C00
1C1C00
000000
000000
000000
E00380
E00380
E00380
E00380
E00380
E00380
E00380
E00380
E00380
E00380
E00380
E00380
E00380
E00380
E00380
E00380
E00380
E00780
F00780
F00780
F00780
780F00
7C1F00
3FFE00
1FFC00
07F000
ENDCHAR
STARTCHAR 00DD
ENCODING 221
SWIDTH 504 0
DWIDTH 21 0
BBX 19 35 1 0
BITMAP
001000
003800
007800
00F000
01E000
01C000
008000
000000
000000
F001E0
F001E0
7001C0
7803C0
7803C0
3C0780
3C0780
1E0F00
1E0F00
0F1E00
0F1E00
07BC00
03B800
03F800
01F000
01F000
00E000
00E000
00E000
00E000
00E000
00E000
00E000
00E000
00E000
00E000
ENDCHAR
STARTCHAR 00DE
ENCODING 222
SWIDTH 504 0
DWIDTH 21 0
BBX 16 26 3 0
BITMAP
F000
F000
F000
F000
FFE0
FFF8
FFFC
F03E
F01F
F00F
F00F
F007
F007
F00F
F00F
F00F
F01E
F07E
FFFC
FFF8
FFC0
F000
F000
F000
F000
F000
ENDCHAR
STARTCHAR 00DF
ENCODING 223
SWIDTH 504 0
DWIDTH 21 0
BBX 17 29 3 0
BITMAP
0FC000
1FF000
3FF800
787800
703C00
F03C00
F03C00
E03C00
E07800
E07800
E0F000
E1E000
E3C000
E3C000
E3C000
E3C000
E3F000
E1FC00
E07E00
E01F00
E00F80
E00780
E00780
E00780
E00780
E30F80
E3FF00
E3FE00
E1F800
ENDCHAR
STARTCHAR 00E0
ENCODING 224
SWIDTH 504 0
DWIDTH 21 0
BBX 16 29 2 0
BITMAP
0100
0300
0780
03C0
01E0
00F0
0020
0000
0000
0000
0FF0
1FFC
1FFE
101F
000F
0007
0007
07FF
1FFF
3FFF
7C07
7007
F007
F007
7007
7C07
3FFF
1FFF
07FE
ENDCHAR
STARTCHAR 00E1
ENCODING 225
SWIDTH 504 0
DWIDTH 21 0
BBX 16 29 2 0
BITMAP
0020
0070
00F8
00F0
01C0
0380
0100
0000
0000
0000
0FF0
1FFC
1FFE
101F
000F
0007
0007
07FF
1FFF
3FFF
7C07
7007
F007
F007
7007
7C07
3FFF
1FFF
07FE
ENDCHAR
STARTCHAR 00E2
ENCODING 226
SWIDTH 504 0
DWIDTH 21 0
BBX 16 29 2 0
BITMAP
0080
01C0
03E0
03F0
0738
0E1C
0408
0000
0000
0000
0FF0
1FFC
1FFE
101F
000F
0007
0007
07FF
1FFF
3FFF
7C07
7007
F007
F007
7007
7C07
3FFF
1FFF
07FE
ENDCHAR
STARTCHAR 00E3
ENCODING 227
SWIDTH 504 0
DWIDTH 21 0
BBX 16 27 2 0
BITMAP
078C
0FFC
1FF8
18F0
0000
0000
0000
0000
0FF0
1FFC
1FFE
101F
000F
0007
0007
07FF
1FFF
3FFF
7C07
7007
F007
F007
7007
7C07
3FFF
1FFF
07FE
ENDCHAR
STARTCHAR 00E4
ENCODING 228
SWIDTH 504 0
DWIDTH 21 0
BBX 16 27 2 0
BITMAP
0C18
1E3C
1E3C
1C1C
0000
0000
0000
0000
0FF0
1FFC
1FFE
101F
000F
0007
0007
07FF
1FFF
3FFF
7C07
7007
F007
F007
7007
7C07
3FFF
1FFF
07FE
ENDCHAR
STARTCHAR 00E5
ENCODING 229
SWIDTH 504 0
DWIDTH 21 0
BBX 16 30 2 0
BITMAP
01C0
07F0
0630
0630
0630
0630
07F0
01C0
0000
0000
0000
0FF0
1FFC
1FFE
101F
000F
0007
0007
07FF
1FFF
3FFF
7C07
7007
F007
F007
7007
7C07
3FFF
1FFF
07FE
ENDCHAR
STARTCHAR 00E6
ENCODING 230
SWIDTH 504 0
DWIDTH 21 0
BBX 19 19 1 0
BITMAP
3F0F00
3F9F80
3FFFC0
21F9C0
00F1C0
00F0E0
00E0E0
1FE0E0
3FFFE0
7FFFE0
78FFE0
F0E000
E0E000
E0F000
F07000
78F840
7FFFC0
3FDFC0
1F0F80
ENDCHAR
STARTCHAR 00E7
ENCODING 231
SWIDTH 504 0
DWIDTH 21 0
BBX 17 26 2 -7
BITMAP
01FE00
0FFF00
1FFF00
3F0100
7C0000
780000
F00000
F00000
F00000
F00000
F00000
F00000
F00000
780000
7C0000
3F0180
1FFF80
0FFF80
01FE00
00E000
00C000
00E000
007000
007000
03F000
07E000
ENDCHAR
STARTCHAR 00E8
ENCODING 232
SWIDTH 504 0
DWIDTH 21 0
BBX 17 29 2 0
BITMAP
010000
030000
078000
03C000
01E000
00F000
002000
000000
000000
000000
03F000
0FFC00
3FFE00
3E1F00
780F00
F00780
F00780
E00380
FFFF80
FFFF80
FFFF80
E00000
E00000
F00000
780000
7E0200
3FFF00
0FFF00
03FC00
ENDCHAR
STARTCHAR 00E9
ENCODING 233
SWIDTH 504 0
DWIDTH 21 0
BBX 17 29 2 0
BITMAP
002000
007000
00F800
00F000
01C000
038000
010000
000000
000000
000000
03F000
0FFC00
3FFE00
3E1F00
780F00
F00780
F00780
E00380
FFFF80
FFFF80
FFFF80
E00000
E00000
F00000
780000
7E0200
3FFF00
0FFF00
03FC00
ENDCHAR
STARTCHAR 00EA
ENCODING 234
SWIDTH 504 0
DWIDTH 21 0
BBX 17 29 2 0
BITMAP
004000
00C000
01E000
03F000
073800
0E1C00
040800
000000
000000
000000
03F000
0FFC00
3FFE00
3E1F00
780F00
F00780
F00780
E00380
FFFF80
FFFF80
FFFF80
E00000
E00000
F00000
780000
7E0200
3FFF00
0FFF00
03FC00
ENDCHAR
STARTCHAR 00EB
ENCODING 235
SWIDTH 504 0
DWIDTH 21 0
BBX 17 27 2 0
BITMAP
0E1C00
1F3E00
1F3E00
0E1C00
000000
000000
000000
000000
03F000
0FFC00
3FFE00
3E1F00
780F00
F00780
F00780
E00380
FFFF80
FFFF80
FFFF80
E00000
E00000
F00000
780000
7E0200
3FFF00
0FFF00
03FC00
ENDCHAR
STARTCHAR 00EC
ENCODING 236
SWIDTH 504 0
DWIDTH 21 0
BBX 17 29 2 0
BITMAP
040000
0E0000
0F0000
078000
03C000
01C000
008000
000000
000000
000000
FF8000
FF8000
FF8000
038000
038000
038000
038000
038000
038000
038000
038000
038000
038000
038000
03C000
03E100
01FF80
00FF80
007E00
ENDCHAR
STARTCHAR 00ED
ENCODING 237
SWIDTH 504 0
DWIDTH 21 0
BBX 17 29 2 0
BITMAP
008000
01C000
01E000
03C000
078000
0E0000
040000
000000
000000
000000
FF8000
FF8000
FF8000
038000
038000
038000
038000
038000
038000
038000
038000
038000
038000
038000
03C000
03E100
01FF80
00FF80
007E00
ENDCHAR
STARTCHAR 00EE
ENCODING 238
SWIDTH 504 0
DWIDTH 21 0
BBX 17 29 2 0
BITMAP
010000
030000
078000
0FC000
1CE000
387000
102000
000000
000000
000000
FF8000
FF8000
FF8000
038000
038000
038000
038000
038000
038000
038000
038000
038000
038000
038000
03C000
03E100
01FF80
00FF80
007E00
ENDCHAR
STARTCHAR 00EF
ENCODING 239
SWIDTH 504 0
DWIDTH 21 0
BBX 17 27 2 0
BITMAP
387000
7CF800
7CF800
387000
000000
000000
000000
000000
FF8000
FF8000
FF8000
038000
038000
038000
038000
038000
038000
038000
038000
038000
038000
038000
03C000
03E100
01FF80
00FF80
007E00
ENDCHAR
STARTCHAR 00F0
ENCODING 240
SWIDTH 504 0
DWIDTH 21 0
BBX 17 29 2 0
BITMAP
010000
03C000
03E180
00FF80
007F00
03F800
07FC00
061C00
001E00
000E00
07CE00
1FFF00
3FFF00
3C3F00
780F00
780700
700700
F00700
F00700
F00700
F00F00
F00F00
700F00
780E00
781E00
3C3C00
1FFC00
0FF800
07E000
ENDCHAR
STARTCHAR 00F1
ENCODING 241
SWIDTH 504 0
DWIDTH 21 0
BBX 15 27 3 0
BITMAP
0F18
1FF8
3FF0
31E0
0000
0000
0000
0000
3FE0
FFF8
FFFC
E03C
E01E
E01E
E00E
E00E
E00E
E00E
E00E
E00E
E00E
E00E
E00E
E00E
E00E
E00E
E00E
ENDCHAR
STARTCHAR 00F2
ENCODING 242
SWIDTH 504 0
DWIDTH 21 0
BBX 17 29 2 0
BITMAP
010000
038000
07C000
01E000
00E000
007000
002000
000000
000000
000000
07F000
1FFC00
3FFE00
7C1F00
780F00
F00780
F00780
E00380
E00380
E00380
E00380
E00380
F00780
F00780
780F00
7C1F00
3FFE00
1FFC00
07E000
ENDCHAR
STARTCHAR 00F3
ENCODING 243
SWIDTH 504 0
DWIDTH 21 0
BBX 17 29 2 0
BITMAP
002000
007000
00F000
01E000
03C000
038000
010000
000000
000000
000000
07F000
1FFC00
3FFE00
7C1F00
780F00
F00780
F00780
E00380
E00380
E00380
E00380
E00380
F00780
F00780
780F00
7C1F00
3FFE00
1FFC00
07E000
ENDCHAR
STARTCHAR 00F4
ENCODING 244
SWIDTH 504 0
DWIDTH 21 0
BBX 17 29 2 0
BITMAP
008000
01C000
03E000
07F000
0F7800
0E3800
080800
000000
000000
000000
07F000
1FFC00
3FFE00
7C1F00
780F00
F00780
F00780
E00380
E00380
E00380
E00380
E00380
F00780
F00780
780F00
7C1F00
3FFE00
1FFC00
07E000
ENDCHAR
STARTCHAR 00F5
ENCODING 245
SWIDTH 504 0
DWIDTH 21 0
BBX 17 27 2 0
BITMAP
078C00
0FFC00
1FF800
18F000
000000
000000
000000
000000
07F000
1FFC00
3FFE00
7C1F00
780F00
F00780
F00780
E00380
E00380
E00380
E00380
E00380
F00780
F00780
780F00
7C1F00
3FFE00
1FFC00
07E000
ENDCHAR
STARTCHAR 00F6
ENCODING 246
SWIDTH 504 0
DWIDTH 21 0
BBX 17 27 2 0
BITMAP
0C1800
1E3C00
1E3C00
1C1C00
000000
000000
000000
000000
07F000
1FFC00
3FFE00
7C1F00
780F00
F00780
F00780
E00380
E00380
E00380
E00380
E00380
F00780
F00780
780F00
7C1F00
3FFE00
1FFC00
07E000
ENDCHAR
STARTCHAR 00F7
ENCODING 247
SWIDTH 504 0
DWIDTH 21 0
BBX 17 19 2 2
BITMAP
01C000
03E000
03E000
03E000
01C000
000000
000000
000000
FFFF80
FFFF80
FFFF80
000000
000000
000000
01C000
03E000
03E000
03E000
01C000
ENDCHAR
STARTCHAR 00F8
ENCODING 248
SWIDTH 504 0
DWIDTH 21 0
BBX 17 21 2 -1
BITMAP
000100
07F380
1FFF00
3FFF00
7C1F00
781F00
F03F80
F07780
E07380
E0E380
E1C380
E38380
E70380
F70780
FE0780
7C0F00
7C1F00
7FFE00
7FFC00
E3E000
400000
ENDCHAR
STARTCHAR 00F9
ENCODING 249
SWIDTH 504 0
DWIDTH 21 0
BBX 15 29 3 0
BITMAP
0200
0600
0F00
0780
03C0
01E0
0040
0000
0000
0000
E00E
E00E
E00E
E00E
E00E
E00E
E00E
E00E
E00E
E00E
E00E
E00E
F00E
F00E
F00E
7C0E
7FFE
3FFE
0FF8
ENDCHAR
STARTCHAR 00FA
ENCODING 250
SWIDTH 504 0
DWIDTH 21 0
BBX 15 29 3 0
BITMAP
0040
00E0
01E0
03C0
0780
0700
0200
0000
0000
0000
E00E
E00E
E00E
E00E
E00E
E00E
E00E
E00E
E00E
E00E
E00E
E00E
F00E
F00E
F00E
7C0E
7FFE
3FFE
0FF8
ENDCHAR
STARTCHAR 00FB
ENCODING 251
SWIDTH 504 0
DWIDTH 21 0
BBX 15 29 3 0
BITMAP
0100
0380
07C0
0FE0
1EF0
1C70
1010
0000
0000
0000
E00E
E00E
E00E
E00E
E00E
E00E
E00E
E00E
E00E
E00E
E00E
E00E
F00E
F00E
F00E
7C0E
7FFE
3FFE
0FF8
ENDCHAR
STARTCHAR 00FC
ENCODING 252
SWIDTH 504 0
DWIDTH 21 0
BBX 15 27 3 0
BITMAP
1830
3C78
3C78
3838
0000
0000
0000
0000
E00E
E00E
E00E
E00E
E00E
E00E
E00E
E00E
E00E
E00E
E00E
E00E
F00E
F00E
F00E
7C0E
7FFE
3FFE
0FF8
ENDCHAR
STARTCHAR 00FD
ENCODING 253
SWIDTH 504 0
DWIDTH 21 0
BBX 17 36 2 -7
BITMAP
002000
007000
00F800
01E000
01C000
038000
010000
000000
000000
000000
F00380
F00780
700780
780700
780700
380F00
3C0F00
3C0E00
1C0E00
1E1E00
0E1C00
0F1C00
0F3C00
073800
07B800
03F800
03F000
01F000
01E000
00E000
01C000
03C000
078000
FF0000
FE0000
FC0000
ENDCHAR
STARTCHAR 00FE
ENCODING 254
SWIDTH 504 0
DWIDTH 21 0
BBX 16 36 3 -7
BITMAP
E000
E000
E000
E000
E000
E000
E000
E000
E000
E000
E7E0
FFF8
FFFC
F83E
E01E
E00F
E00F
E007
E007
E007
E007
E007
E00F
E00F
E01E
F83E
FFFC
FFF8
E7E0
E000
E000
E000
E000
E000
E000
E000
ENDCHAR
STARTCHAR 00FF
ENCODING 255
SWIDTH 504 0
DWIDTH 21 0
BBX 17 34 2 -7
BITMAP
0E1C00
1F1E00
1F1E00
0E1C00
000000
000000
000000
000000
F00380
F00780
700780
780700
780700
380F00
3C0F00
3C0E00
1C0E00
1E1E00
0E1C00
0F1C00
0F3C00
073800
07B800
03F800
03F000
01F000
01E000
00E000
01C000
03C000
078000
FF0000
FE0000
FC0000
ENDCHAR
STARTCHAR 0152
ENCODING 140
SWIDTH 504 0
DWIDTH 21 0
BBX 19 26 1 0
BITMAP
03FFE0
0FFFE0
1FFFE0
3E3800
383800
783800
703800
703800
F03800
F03800
F03800
F03FC0
F03FC0
F03FC0
F03800
F03800
F03800
F03800
703800
703800
783800
783800
3C3800
1FFFE0
0FFFE0
07FFE0
ENDCHAR
STARTCHAR 0153
ENCODING 156
SWIDTH 504 0
DWIDTH 21 0
BBX 19 19 1 0
BITMAP
0F0F00
3F9F80
3F9FC0
79F9C0
70F1E0
70F0E0
70F0E0
F0F0E0
F0FFE0
F0FFE0
F0FFE0
F0F000
70F000
70F000
70F800
79FC40
3F9FC0
1F9FC0
0F0780
ENDCHAR
STARTCHAR 0160
ENCODING 138
SWIDTH 504 0
DWIDTH 21 0
BBX 17 35 2 0
BITMAP
040800
0E1C00
073C00
03F800
01F000
00E000
004000
000000
000000
03F800
0FFE00
3FFE00
3C0E00
780200
780000
700000
700000
780000
7C0000
3F0000
1FC000
0FF000
03FC00
007E00
001F00
000F00
000780
000780
000780
000780
400F00
701F00
FFFE00
7FFC00
0FF000
ENDCHAR
STARTCHAR 0161
ENCODING 154
SWIDTH 504 0
DWIDTH 21 0
BBX 15 29 3 0
BITMAP
0810
1C38
0E70
07E0
03C0
0180
0100
0000
0000
0000
0FF8
3FFC
7FFC
F80C
F000
F000
F800
7E00
3FC0
1FF0
03FC
007E
001E
000E
800E
F03E
FFFC
FFF8
1FE0
ENDCHAR
STARTCHAR 0178
ENCODING 159
SWIDTH 504 0
DWIDTH 21 0
BBX 19 33 1 0
BITMAP
060E00
0F1E00
0F1E00
060E00
000000
000000
000000
F001E0
F001E0
7001C0
7803C0
7803C0
3C0780
3C0780
1E0F00
1E0F00
0F1E00
0F1E00
07BC00
03B800
03F800
01F000
01F000
00E000
00E000
00E000
00E000
00E000
00E000
00E000
00E000
00E000
00E000
ENDCHAR
STARTCHAR 017D
ENCODING 142
SWIDTH 504 0
DWIDTH 21 0
BBX 17 35 2 0
BITMAP
080800
0E3800
0F7800
07F000
03E000
01C000
008000
000000
000000
7FFF80
7FFF80
7FFF80
000F00
000F00
001E00
003C00
003C00
007800
00F000
00F000
01E000
01C000
03C000
078000
070000
0F0000
0E0000
1E0000
3C0000
3C0000
780000
700000
FFFF80
FFFF80
FFFF80
ENDCHAR
STARTCHAR 017E
ENCODING 158
SWIDTH 504 0
DWIDTH 21 0
BBX 15 29 3 0
BITMAP
1010
1C70
1EF0
0FE0
07C0
0380
0100
0000
0000
0000
7FFE
7FFE
7FFE
003C
0078
00F0
01E0
03E0
03C0
0780
0F00
1E00
1E00
3C00
7800
7800
FFFE
FFFE
FFFE
ENDCHAR
STARTCHAR 0192
ENCODING 131
SWIDTH 504 0
DWIDTH 21 0
BBX 20 36 0 -7
BITMAP
001FC0
007FF0
00FFF0
00F030
01E000
01E000
01C000
01C000
01C000
01C000
1FFFC0
1FFFC0
1FFFC0
01C000
01C000
01C000
01C000
01C000
01C000
01C000
01C000
01C000
01C000
01C000
01C000
01C000
01C000
01C000
01C000
01C000
01C000
03C000
07C000
7F8000
7F0000
FC0000
ENDCHAR
STARTCHAR 02C6
ENCODING 136
SWIDTH 504 0
DWIDTH 21 0
BBX 9 7 6 22
BITMAP
0800
1C00
3E00
7F00
F780
E380
8080
ENDCHAR
STARTCHAR 02DC
ENCODING 152
SWIDTH 504 0
DWIDTH 21 0
BBX 11 4 5 23
BITMAP
3C60
7FE0
FFC0
C780
ENDCHAR
STARTCHAR 2013
ENCODING 150
SWIDTH 504 0
DWIDTH 21 0
BBX 15 3 3 10
BITMAP
FFFE
FFFE
FFFE
ENDCHAR
STARTCHAR 2014
ENCODING 151
SWIDTH 504 0
DWIDTH 21 0
BBX 21 3 0 10
BITMAP
FFFFF8
FFFFF8
FFFFF8
ENDCHAR
STARTCHAR 2018
ENCODING 145
SWIDTH 504 0
DWIDTH 21 0
BBX 9 12 6 18
BITMAP
0300
0F00
1F80
3E00
7800
7000
F800
FC00
FC00
FC00
7C00
3800
ENDCHAR
STARTCHAR 2019
ENCODING 146
SWIDTH 504 0
DWIDTH 21 0
BBX 9 12 6 18
BITMAP
0E00
1F00
3F80
3F80
1F80
0F80
0700
0F00
3E00
FC00
7800
6000
ENDCHAR
STARTCHAR 201A
ENCODING 130
SWIDTH 504 0
DWIDTH 21 0
BBX 9 12 6 -6
BITMAP
0E00
1F00
3F80
3F80
1F80
0F80
0700
0F00
3E00
FC00
7800
6000
ENDCHAR
STARTCHAR 201C
ENCODING 147
SWIDTH 504 0
DWIDTH 21 0
BBX 17 11 2 18
BITMAP
060380
1E0F80
3C1F00
703C00
E03800
F03C00
F83E00
FC3E00
FC3E00
F83E00
781C00
ENDCHAR
STARTCHAR 201D
ENCODING 148
SWIDTH 504 0
DWIDTH 21 0
BBX 17 11 2 18
BITMAP
1C0700
3E0F80
3E1F80
3E1F80
3E0F80
1E0780
0E0380
1E0700
3C1E00
F83C00
E03000
ENDCHAR
STARTCHAR 201E
ENCODING 132
SWIDTH 504 0
DWIDTH 21 0
BBX 17 11 2 -5
BITMAP
1C0700
3E0F80
3E1F80
3E0F80
3E0F80
1E0780
0E0380
1C0700
7C1E00
F83C00
E03000
ENDCHAR
STARTCHAR 2020
ENCODING 134
SWIDTH 504 0
DWIDTH 21 0
BBX 15 31 3 -5
BITMAP
0380
0380
0380
0380
0380
0380
0380
0380
FFFE
FFFE
FFFE
0380
0380
0380
0380
0380
0380
0380
0380
0380
0380
0380
0380
0380
0380
0380
0380
0380
0380
0380
0100
ENDCHAR
STARTCHAR 2021
ENCODING 135
SWIDTH 504 0
DWIDTH 21 0
BBX 15 31 3 -5
BITMAP
0380
0380
0380
0380
0380
0380
0380
0380
FFFE
FFFE
FFFE
0380
0380
0380
0380
0380
0380
0380
FFFE
FFFE
FFFE
0380
0380
0380
0380
0380
0380
0380
0380
0380
0100
ENDCHAR
STARTCHAR 2022
ENCODING 149
SWIDTH 504 0
DWIDTH 21 0
BBX 11 12 5 7
BITMAP
1F00
3F80
7FC0
FFE0
FFE0
FFE0
FFE0
FFE0
FFE0
7FC0
3F80
1F00
ENDCHAR
STARTCHAR 2026
ENCODING 133
SWIDTH 504 0
DWIDTH 21 0
BBX 19 6 1 0
BITMAP
70E1C0
70E1C0
F9F3E0
F9F3E0
70E1C0
70E1C0
ENDCHAR
STARTCHAR 2030
ENCODING 137
SWIDTH 504 0
DWIDTH 21 0
BBX 19 26 1 0
BITMAP
780000
7C0000
CC0000
CC0020
CC00E0
CC03E0
CC0780
CC1F00
CC3C00
CCF000
7DE000
7F8000
1F0000
3C0000
FB83C0
E7C7C0
86E660
066660
0E6660
0E6660
0E6660
0E6660
066660
06E660
07C7C0
0383C0
ENDCHAR
STARTCHAR 2039
ENCODING 139
SWIDTH 504 0
DWIDTH 21 0
BBX 8 17 6 2
BITMAP
02
07
0F
1E
1E
3C
78
78
F0
78
78
3C
1E
1E
0F
07
02
ENDCHAR
STARTCHAR 203A
ENCODING 155
SWIDTH 504 0
DWIDTH 21 0
BBX 8 17 7 2
BITMAP
40
E0
F0
78
38
3C
1E
1E
0F
1E
1E
3C
78
78
F0
E0
40
ENDCHAR
STARTCHAR 20AC
ENCODING 128
SWIDTH 504 0
DWIDTH 21 0
BBX 18 26 2 0
BITMAP
00FF00
03FF80
07FF80
0F8100
0F0000
1E0000
1C0000
1C0000
FFFC00
FFFC00
FFFC00
3C0000
3C0000
3C0000
3C0000
FFF800
FFF800
FFF800
3C0000
1C0000
1E0000
1F0000
0F8080
07FF80
03FFC0
00FF00
ENDCHAR
STARTCHAR 2122
ENCODING 153
SWIDTH 504 0
DWIDTH 21 0
BBX 19 11 1 15
BITMAP
FF71C0
FF71C0
3879C0
387BC0
387BE0
386FE0
386EE0
3866E0
3860E0
38E060
38E060
ENDCHAR
ENDFONT
